<mxfile host="app.diagrams.net" agent="Mozilla/5.0 (Windows NT 10.0; Win64; x64) AppleWebKit/537.36 (KHTML, like Gecko) Chrome/130.0.0.0 Safari/537.36" version="24.8.3">
  <diagram name="Página-1" id="FKTo-1aSechLJuadVrGD">
    <mxGraphModel dx="1161" dy="1050" grid="1" gridSize="10" guides="1" tooltips="1" connect="1" arrows="1" fold="1" page="1" pageScale="1" pageWidth="827" pageHeight="1169" math="0" shadow="0">
      <root>
        <mxCell id="0" />
        <mxCell id="1" parent="0" />
        <mxCell id="Yj47pA09OBO34F4H2-Fb-6" value="" style="edgeStyle=orthogonalEdgeStyle;rounded=0;orthogonalLoop=1;jettySize=auto;html=1;" edge="1" parent="1" source="Yj47pA09OBO34F4H2-Fb-1" target="Yj47pA09OBO34F4H2-Fb-2">
          <mxGeometry relative="1" as="geometry" />
        </mxCell>
        <mxCell id="Yj47pA09OBO34F4H2-Fb-1" value="Inicio" style="ellipse;whiteSpace=wrap;html=1;aspect=fixed;fillColor=#e1d5e7;strokeColor=#9673a6;" vertex="1" parent="1">
          <mxGeometry x="370" y="520" width="80" height="80" as="geometry" />
        </mxCell>
        <mxCell id="Yj47pA09OBO34F4H2-Fb-7" value="" style="edgeStyle=orthogonalEdgeStyle;rounded=0;orthogonalLoop=1;jettySize=auto;html=1;" edge="1" parent="1" source="Yj47pA09OBO34F4H2-Fb-2" target="Yj47pA09OBO34F4H2-Fb-3">
          <mxGeometry relative="1" as="geometry" />
        </mxCell>
        <mxCell id="Yj47pA09OBO34F4H2-Fb-2" value="&amp;nbsp;Mostrar mensaje: &quot;Por favor, ingrese el radio del círculo: &quot;" style="shape=parallelogram;perimeter=parallelogramPerimeter;whiteSpace=wrap;html=1;fixedSize=1;fillColor=#ffe6cc;strokeColor=#d79b00;" vertex="1" parent="1">
          <mxGeometry x="320" y="630" width="180" height="90" as="geometry" />
        </mxCell>
        <mxCell id="Yj47pA09OBO34F4H2-Fb-8" value="" style="edgeStyle=orthogonalEdgeStyle;rounded=0;orthogonalLoop=1;jettySize=auto;html=1;" edge="1" parent="1" source="Yj47pA09OBO34F4H2-Fb-3" target="Yj47pA09OBO34F4H2-Fb-4">
          <mxGeometry relative="1" as="geometry" />
        </mxCell>
        <mxCell id="Yj47pA09OBO34F4H2-Fb-3" value="&lt;div&gt;&amp;nbsp; &amp;nbsp; Definir y asignar a la variable area el resultado de π * radio^2&lt;/div&gt;&lt;div&gt;&lt;br&gt;&lt;/div&gt;" style="rounded=1;whiteSpace=wrap;html=1;fillColor=#dae8fc;strokeColor=#6c8ebf;" vertex="1" parent="1">
          <mxGeometry x="335" y="750" width="150" height="70" as="geometry" />
        </mxCell>
        <mxCell id="Yj47pA09OBO34F4H2-Fb-9" value="" style="edgeStyle=orthogonalEdgeStyle;rounded=0;orthogonalLoop=1;jettySize=auto;html=1;" edge="1" parent="1" source="Yj47pA09OBO34F4H2-Fb-4" target="Yj47pA09OBO34F4H2-Fb-5">
          <mxGeometry relative="1" as="geometry" />
        </mxCell>
        <mxCell id="Yj47pA09OBO34F4H2-Fb-4" value="&lt;div&gt;&amp;nbsp; &amp;nbsp; Mostrar mensaje: &quot;El área del círculo&amp;nbsp;&lt;/div&gt;&lt;div&gt;con radio&quot;, radio, &quot;es:&quot;, area&lt;/div&gt;&lt;div&gt;&lt;br&gt;&lt;/div&gt;" style="shape=parallelogram;perimeter=parallelogramPerimeter;whiteSpace=wrap;html=1;fixedSize=1;fillColor=#ffe6cc;strokeColor=#d79b00;" vertex="1" parent="1">
          <mxGeometry x="290" y="850" width="240" height="120" as="geometry" />
        </mxCell>
        <mxCell id="Yj47pA09OBO34F4H2-Fb-5" value="Fin" style="ellipse;whiteSpace=wrap;html=1;aspect=fixed;fillColor=#e1d5e7;strokeColor=#9673a6;" vertex="1" parent="1">
          <mxGeometry x="370" y="1000" width="80" height="80" as="geometry" />
        </mxCell>
      </root>
    </mxGraphModel>
  </diagram>
</mxfile>
